<mxfile host="Electron" agent="Mozilla/5.0 (X11; Linux x86_64) AppleWebKit/537.36 (KHTML, like Gecko) draw.io/26.0.4 Chrome/128.0.6613.186 Electron/32.2.5 Safari/537.36" version="26.0.4">
  <diagram name="Page-1" id="NyROWdmkw-8hthtl_QMj">
    <mxGraphModel dx="1114" dy="1198" grid="1" gridSize="10" guides="1" tooltips="1" connect="1" arrows="1" fold="1" page="1" pageScale="1" pageWidth="850" pageHeight="1100" math="0" shadow="0">
      <root>
        <mxCell id="0" />
        <mxCell id="1" parent="0" />
        <mxCell id="8o8Y5m0T7R4Kcj14xXGn-14" style="edgeStyle=orthogonalEdgeStyle;rounded=0;orthogonalLoop=1;jettySize=auto;html=1;" edge="1" parent="1" source="8o8Y5m0T7R4Kcj14xXGn-3" target="8o8Y5m0T7R4Kcj14xXGn-8">
          <mxGeometry relative="1" as="geometry">
            <Array as="points">
              <mxPoint x="221" y="739" />
              <mxPoint x="221" y="590" />
            </Array>
          </mxGeometry>
        </mxCell>
        <mxCell id="8o8Y5m0T7R4Kcj14xXGn-15" style="edgeStyle=orthogonalEdgeStyle;rounded=0;orthogonalLoop=1;jettySize=auto;html=1;" edge="1" parent="1" source="8o8Y5m0T7R4Kcj14xXGn-2" target="8o8Y5m0T7R4Kcj14xXGn-8">
          <mxGeometry relative="1" as="geometry">
            <Array as="points">
              <mxPoint x="201" y="609" />
              <mxPoint x="201" y="570" />
            </Array>
          </mxGeometry>
        </mxCell>
        <mxCell id="8o8Y5m0T7R4Kcj14xXGn-16" style="edgeStyle=orthogonalEdgeStyle;rounded=0;orthogonalLoop=1;jettySize=auto;html=1;" edge="1" parent="1" source="8o8Y5m0T7R4Kcj14xXGn-1" target="8o8Y5m0T7R4Kcj14xXGn-8">
          <mxGeometry relative="1" as="geometry">
            <Array as="points">
              <mxPoint x="201" y="490" />
              <mxPoint x="201" y="550" />
            </Array>
          </mxGeometry>
        </mxCell>
        <mxCell id="8o8Y5m0T7R4Kcj14xXGn-24" style="edgeStyle=orthogonalEdgeStyle;rounded=0;orthogonalLoop=1;jettySize=auto;html=1;" edge="1" parent="1" source="8o8Y5m0T7R4Kcj14xXGn-8" target="8o8Y5m0T7R4Kcj14xXGn-19">
          <mxGeometry relative="1" as="geometry">
            <Array as="points">
              <mxPoint x="521" y="550" />
              <mxPoint x="521" y="491" />
            </Array>
          </mxGeometry>
        </mxCell>
        <mxCell id="8o8Y5m0T7R4Kcj14xXGn-27" value="&amp;nbsp;Enchanced fan-out pipe&amp;nbsp;" style="edgeLabel;html=1;align=center;verticalAlign=middle;resizable=0;points=[];" vertex="1" connectable="0" parent="8o8Y5m0T7R4Kcj14xXGn-24">
          <mxGeometry x="0.307" y="-3" relative="1" as="geometry">
            <mxPoint y="-4" as="offset" />
          </mxGeometry>
        </mxCell>
        <mxCell id="8o8Y5m0T7R4Kcj14xXGn-25" style="edgeStyle=orthogonalEdgeStyle;rounded=0;orthogonalLoop=1;jettySize=auto;html=1;" edge="1" parent="1" source="8o8Y5m0T7R4Kcj14xXGn-8" target="8o8Y5m0T7R4Kcj14xXGn-20">
          <mxGeometry relative="1" as="geometry">
            <Array as="points">
              <mxPoint x="521" y="570" />
              <mxPoint x="521" y="629" />
            </Array>
          </mxGeometry>
        </mxCell>
        <mxCell id="8o8Y5m0T7R4Kcj14xXGn-28" value="&amp;nbsp;Enchanced fan-out pipe&amp;nbsp;" style="edgeLabel;html=1;align=center;verticalAlign=middle;resizable=0;points=[];" vertex="1" connectable="0" parent="8o8Y5m0T7R4Kcj14xXGn-25">
          <mxGeometry x="0.2827" y="-1" relative="1" as="geometry">
            <mxPoint y="-1" as="offset" />
          </mxGeometry>
        </mxCell>
        <mxCell id="8o8Y5m0T7R4Kcj14xXGn-8" value="" style="rounded=0;whiteSpace=wrap;html=1;strokeColor=default;fillColor=none;" vertex="1" parent="1">
          <mxGeometry x="251" y="460" width="210" height="180" as="geometry" />
        </mxCell>
        <mxCell id="8o8Y5m0T7R4Kcj14xXGn-1" value="Client" style="sketch=0;outlineConnect=0;fontColor=#232F3E;gradientColor=none;strokeColor=#232F3E;fillColor=#ffffff;dashed=0;verticalLabelPosition=bottom;verticalAlign=top;align=center;html=1;fontSize=12;fontStyle=0;aspect=fixed;shape=mxgraph.aws4.resourceIcon;resIcon=mxgraph.aws4.client;" vertex="1" parent="1">
          <mxGeometry x="50" y="460" width="60" height="60" as="geometry" />
        </mxCell>
        <mxCell id="8o8Y5m0T7R4Kcj14xXGn-2" value="Mobile" style="sketch=0;outlineConnect=0;fontColor=#232F3E;gradientColor=none;fillColor=#232F3D;strokeColor=none;dashed=0;verticalLabelPosition=bottom;verticalAlign=top;align=center;html=1;fontSize=12;fontStyle=0;aspect=fixed;pointerEvents=1;shape=mxgraph.aws4.mobile_client;" vertex="1" parent="1">
          <mxGeometry x="59.5" y="570" width="41" height="78" as="geometry" />
        </mxCell>
        <mxCell id="8o8Y5m0T7R4Kcj14xXGn-3" value="Server" style="sketch=0;outlineConnect=0;fontColor=#232F3E;gradientColor=none;fillColor=#232F3D;strokeColor=none;dashed=0;verticalLabelPosition=bottom;verticalAlign=top;align=center;html=1;fontSize=12;fontStyle=0;aspect=fixed;pointerEvents=1;shape=mxgraph.aws4.traditional_server;" vertex="1" parent="1">
          <mxGeometry x="57.5" y="700" width="45" height="78" as="geometry" />
        </mxCell>
        <mxCell id="8o8Y5m0T7R4Kcj14xXGn-4" value="Amazon EC2&lt;div&gt;Instances&lt;/div&gt;" style="sketch=0;points=[[0,0,0],[0.25,0,0],[0.5,0,0],[0.75,0,0],[1,0,0],[0,1,0],[0.25,1,0],[0.5,1,0],[0.75,1,0],[1,1,0],[0,0.25,0],[0,0.5,0],[0,0.75,0],[1,0.25,0],[1,0.5,0],[1,0.75,0]];outlineConnect=0;fontColor=#232F3E;fillColor=#ED7100;strokeColor=#ffffff;dashed=0;verticalLabelPosition=bottom;verticalAlign=top;align=center;html=1;fontSize=12;fontStyle=0;aspect=fixed;shape=mxgraph.aws4.resourceIcon;resIcon=mxgraph.aws4.ec2;" vertex="1" parent="1">
          <mxGeometry x="41" y="330" width="78" height="78" as="geometry" />
        </mxCell>
        <mxCell id="8o8Y5m0T7R4Kcj14xXGn-5" value="Shard A" style="rounded=0;whiteSpace=wrap;html=1;" vertex="1" parent="1">
          <mxGeometry x="280" y="540" width="160" height="30" as="geometry" />
        </mxCell>
        <mxCell id="8o8Y5m0T7R4Kcj14xXGn-6" value="Shard B" style="rounded=0;whiteSpace=wrap;html=1;" vertex="1" parent="1">
          <mxGeometry x="280" y="590" width="160" height="30" as="geometry" />
        </mxCell>
        <mxCell id="8o8Y5m0T7R4Kcj14xXGn-7" value="Amazon Kinesis Stream" style="sketch=0;points=[[0,0,0],[0.25,0,0],[0.5,0,0],[0.75,0,0],[1,0,0],[0,1,0],[0.25,1,0],[0.5,1,0],[0.75,1,0],[1,1,0],[0,0.25,0],[0,0.5,0],[0,0.75,0],[1,0.25,0],[1,0.5,0],[1,0.75,0]];outlineConnect=0;fontColor=#232F3E;fillColor=#8C4FFF;strokeColor=#ffffff;dashed=0;verticalLabelPosition=bottom;verticalAlign=top;align=center;html=1;fontSize=12;fontStyle=0;aspect=fixed;shape=mxgraph.aws4.resourceIcon;resIcon=mxgraph.aws4.kinesis_data_streams;" vertex="1" parent="1">
          <mxGeometry x="321" y="420" width="78" height="78" as="geometry" />
        </mxCell>
        <mxCell id="8o8Y5m0T7R4Kcj14xXGn-13" style="edgeStyle=orthogonalEdgeStyle;rounded=0;orthogonalLoop=1;jettySize=auto;html=1;exitX=1;exitY=0.5;exitDx=0;exitDy=0;exitPerimeter=0;" edge="1" parent="1" source="8o8Y5m0T7R4Kcj14xXGn-4" target="8o8Y5m0T7R4Kcj14xXGn-8">
          <mxGeometry relative="1" as="geometry">
            <Array as="points">
              <mxPoint x="221" y="369" />
              <mxPoint x="221" y="530" />
            </Array>
          </mxGeometry>
        </mxCell>
        <mxCell id="8o8Y5m0T7R4Kcj14xXGn-18" value="Amazon EC2&lt;div&gt;Instances&lt;/div&gt;" style="sketch=0;points=[[0,0,0],[0.25,0,0],[0.5,0,0],[0.75,0,0],[1,0,0],[0,1,0],[0.25,1,0],[0.5,1,0],[0.75,1,0],[1,1,0],[0,0.25,0],[0,0.5,0],[0,0.75,0],[1,0.25,0],[1,0.5,0],[1,0.75,0]];outlineConnect=0;fontColor=#232F3E;fillColor=#ED7100;strokeColor=#ffffff;dashed=0;verticalLabelPosition=bottom;verticalAlign=top;align=center;html=1;fontSize=12;fontStyle=0;aspect=fixed;shape=mxgraph.aws4.resourceIcon;resIcon=mxgraph.aws4.ec2;" vertex="1" parent="1">
          <mxGeometry x="731" y="320" width="78" height="78" as="geometry" />
        </mxCell>
        <mxCell id="8o8Y5m0T7R4Kcj14xXGn-19" value="Amazon EC2&lt;div&gt;Instances&lt;/div&gt;" style="sketch=0;points=[[0,0,0],[0.25,0,0],[0.5,0,0],[0.75,0,0],[1,0,0],[0,1,0],[0.25,1,0],[0.5,1,0],[0.75,1,0],[1,1,0],[0,0.25,0],[0,0.5,0],[0,0.75,0],[1,0.25,0],[1,0.5,0],[1,0.75,0]];outlineConnect=0;fontColor=#232F3E;fillColor=#ED7100;strokeColor=#ffffff;dashed=0;verticalLabelPosition=bottom;verticalAlign=top;align=center;html=1;fontSize=12;fontStyle=0;aspect=fixed;shape=mxgraph.aws4.resourceIcon;resIcon=mxgraph.aws4.ec2;" vertex="1" parent="1">
          <mxGeometry x="731" y="442" width="78" height="78" as="geometry" />
        </mxCell>
        <mxCell id="8o8Y5m0T7R4Kcj14xXGn-20" value="Amazon EC2&lt;div&gt;Instances&lt;/div&gt;" style="sketch=0;points=[[0,0,0],[0.25,0,0],[0.5,0,0],[0.75,0,0],[1,0,0],[0,1,0],[0.25,1,0],[0.5,1,0],[0.75,1,0],[1,1,0],[0,0.25,0],[0,0.5,0],[0,0.75,0],[1,0.25,0],[1,0.5,0],[1,0.75,0]];outlineConnect=0;fontColor=#232F3E;fillColor=#ED7100;strokeColor=#ffffff;dashed=0;verticalLabelPosition=bottom;verticalAlign=top;align=center;html=1;fontSize=12;fontStyle=0;aspect=fixed;shape=mxgraph.aws4.resourceIcon;resIcon=mxgraph.aws4.ec2;" vertex="1" parent="1">
          <mxGeometry x="731" y="580" width="78" height="78" as="geometry" />
        </mxCell>
        <mxCell id="8o8Y5m0T7R4Kcj14xXGn-21" value="Amazon EC2&lt;div&gt;Instances&lt;/div&gt;" style="sketch=0;points=[[0,0,0],[0.25,0,0],[0.5,0,0],[0.75,0,0],[1,0,0],[0,1,0],[0.25,1,0],[0.5,1,0],[0.75,1,0],[1,1,0],[0,0.25,0],[0,0.5,0],[0,0.75,0],[1,0.25,0],[1,0.5,0],[1,0.75,0]];outlineConnect=0;fontColor=#232F3E;fillColor=#ED7100;strokeColor=#ffffff;dashed=0;verticalLabelPosition=bottom;verticalAlign=top;align=center;html=1;fontSize=12;fontStyle=0;aspect=fixed;shape=mxgraph.aws4.resourceIcon;resIcon=mxgraph.aws4.ec2;" vertex="1" parent="1">
          <mxGeometry x="731" y="700" width="78" height="78" as="geometry" />
        </mxCell>
        <mxCell id="8o8Y5m0T7R4Kcj14xXGn-23" value="&amp;nbsp;Enchanced fan-out pipe&amp;nbsp;" style="edgeStyle=orthogonalEdgeStyle;rounded=0;orthogonalLoop=1;jettySize=auto;html=1;entryX=0;entryY=0.5;entryDx=0;entryDy=0;entryPerimeter=0;" edge="1" parent="1" source="8o8Y5m0T7R4Kcj14xXGn-8" target="8o8Y5m0T7R4Kcj14xXGn-18">
          <mxGeometry x="0.4104" relative="1" as="geometry">
            <Array as="points">
              <mxPoint x="501" y="530" />
              <mxPoint x="501" y="359" />
            </Array>
            <mxPoint as="offset" />
          </mxGeometry>
        </mxCell>
        <mxCell id="8o8Y5m0T7R4Kcj14xXGn-26" style="edgeStyle=orthogonalEdgeStyle;rounded=0;orthogonalLoop=1;jettySize=auto;html=1;entryX=0;entryY=0.5;entryDx=0;entryDy=0;entryPerimeter=0;" edge="1" parent="1" source="8o8Y5m0T7R4Kcj14xXGn-8" target="8o8Y5m0T7R4Kcj14xXGn-21">
          <mxGeometry relative="1" as="geometry">
            <Array as="points">
              <mxPoint x="501" y="590" />
              <mxPoint x="501" y="739" />
            </Array>
          </mxGeometry>
        </mxCell>
        <mxCell id="8o8Y5m0T7R4Kcj14xXGn-29" value="&amp;nbsp;Enchanced fan-out pipe&amp;nbsp;" style="edgeLabel;html=1;align=center;verticalAlign=middle;resizable=0;points=[];" vertex="1" connectable="0" parent="8o8Y5m0T7R4Kcj14xXGn-26">
          <mxGeometry x="0.3651" y="3" relative="1" as="geometry">
            <mxPoint y="3" as="offset" />
          </mxGeometry>
        </mxCell>
      </root>
    </mxGraphModel>
  </diagram>
</mxfile>
